<svg width="77" height="40" viewBox="0 0 77 40" fill="none" xmlns="http://www.w3.org/2000/svg">
<rect x="0.5" y="0.5" width="76" height="39" rx="19.5" stroke="black"/>
<path d="M60 21C60.5523 21 61 20.5523 61 20C61 19.4477 60.5523 19 60 19L60 21ZM16.2929 19.2929C15.9024 19.6834 15.9024 20.3166 16.2929 20.7071L22.6569 27.0711C23.0474 27.4616 23.6805 27.4616 24.0711 27.0711C24.4616 26.6805 24.4616 26.0474 24.0711 25.6569L18.4142 20L24.0711 14.3431C24.4616 13.9526 24.4616 13.3195 24.0711 12.9289C23.6805 12.5384 23.0474 12.5384 22.6569 12.9289L16.2929 19.2929ZM60 20L60 19L17 19L17 20L17 21L60 21L60 20Z" fill="black"/>
</svg>
