<svg width="135" height="40" viewBox="0 0 135 40" fill="none" xmlns="http://www.w3.org/2000/svg">
<rect x="134.5" y="39.5" width="134" height="39" rx="19.5" transform="rotate(180 134.5 39.5)" stroke="#E9AA00"/>
<path d="M25 19C24.4477 19 24 19.4477 24 20C24 20.5523 24.4477 21 25 21L25 19ZM114.707 20.7071C115.098 20.3166 115.098 19.6834 114.707 19.2929L108.343 12.9289C107.953 12.5384 107.319 12.5384 106.929 12.9289C106.538 13.3195 106.538 13.9526 106.929 14.3432L112.586 20L106.929 25.6569C106.538 26.0474 106.538 26.6806 106.929 27.0711C107.319 27.4616 107.953 27.4616 108.343 27.0711L114.707 20.7071ZM25 20L25 21L114 21L114 20L114 19L25 19L25 20Z" fill="#E9AA00"/>
</svg>
